HIERARCHY
ROOT Hips
{
    OFFSET 0.0 0.0 0.0
    CHANNELS 6 Xposition Yposition Zposition Zrotation Xrotation Yrotation
    JOINT LeftUpLeg
    {
        OFFSET 13.649548820554799 0.0 0.0
        CHANNELS 3 Zrotation Xrotation Yrotation
        JOINT LeftLeg
        {
            OFFSET 0.0 0.0 -58.108629939251415
            CHANNELS 3 Zrotation Xrotation Yrotation
            JOINT LeftFoot
            {
                OFFSET 0.0 0.0 -47.08769956804327
                CHANNELS 3 Zrotation Xrotation Yrotation
                JOINT LeftToeBase
                {
                    OFFSET 0.0 -11.349010906094879 0.0
                    CHANNELS 3 Zrotation Xrotation Yrotation
                    End Site
                    {
                        OFFSET 0 0 0
                    }
                }
            }
        }
    }
    JOINT RightUpLeg
    {
        OFFSET -13.649548820554799 0.0 0.0
        CHANNELS 3 Zrotation Xrotation Yrotation
        JOINT RightLeg
        {
            OFFSET 0.0 0.0 -58.108629939251415
            CHANNELS 3 Zrotation Xrotation Yrotation
            JOINT RightFoot
            {
                OFFSET 0.0 0.0 -47.08769956804327
                CHANNELS 3 Zrotation Xrotation Yrotation
                JOINT RightToeBase
                {
                    OFFSET 0.0 -11.349010906094879 0.0
                    CHANNELS 3 Zrotation Xrotation Yrotation
                    End Site
                    {
                        OFFSET 0 0 0
                    }
                }
            }
        }
    }
    JOINT Spine
    {
        OFFSET 0.0 0.0 11.716182064764524
        CHANNELS 3 Zrotation Xrotation Yrotation
        JOINT Spine1
        {
            OFFSET 0.0 0.0 11.66593176517277
            CHANNELS 3 Zrotation Xrotation Yrotation
            JOINT Spine2
            {
                OFFSET 0.0 0.0 11.66593176517277
                CHANNELS 3 Zrotation Xrotation Yrotation
                JOINT Spine3
                {
                    OFFSET 0.0 0.0 11.665931765172767
                    CHANNELS 3 Zrotation Xrotation Yrotation
                    JOINT Spine4
                    {
                        OFFSET 0.0 0.0 11.665931765172774
                        CHANNELS 3 Zrotation Xrotation Yrotation
                        JOINT RightShoulder
                        {
                            OFFSET -23.337854324262146 0.0 0.0
                            CHANNELS 3 Zrotation Xrotation Yrotation
                            JOINT RightArm
                            {
                                OFFSET -34.15785908833445 0.0 0.0
                                CHANNELS 3 Zrotation Xrotation Yrotation
                                JOINT RightForeArm
                                {
                                    OFFSET -34.41827396954807 0.0 0.0
                                    CHANNELS 3 Zrotation Xrotation Yrotation
                                    JOINT RightHand
                                    {
                                        OFFSET -11.289133845961292 0.0 0.0
                                        CHANNELS 3 Zrotation Xrotation Yrotation
                                        End Site
                                        {
                                            OFFSET 0 0 0
                                        }
                                    }
                                }
                            }
                        }
                        JOINT LeftShoulder
                        {
                            OFFSET 23.337854324262146 0.0 0.0
                            CHANNELS 3 Zrotation Xrotation Yrotation
                            JOINT LeftArm
                            {
                                OFFSET 34.15785908833445 0.0 0.0
                                CHANNELS 3 Zrotation Xrotation Yrotation
                                JOINT LeftForeArm
                                {
                                    OFFSET 34.41827396954807 0.0 0.0
                                    CHANNELS 3 Zrotation Xrotation Yrotation
                                    JOINT LeftHand
                                    {
                                        OFFSET 11.289133845961292 0.0 0.0
                                        CHANNELS 3 Zrotation Xrotation Yrotation
                                        End Site
                                        {
                                            OFFSET 0 0 0
                                        }
                                    }
                                }
                            }
                        }
                        JOINT Neck
                        {
                            OFFSET 0.0 0.0 11.66593178993597
                            CHANNELS 3 Zrotation Xrotation Yrotation
                            JOINT Head
                            {
                                OFFSET 0.0 0.0 25.614464441227344
                                CHANNELS 3 Zrotation Xrotation Yrotation
                                End Site
                                {
                                    OFFSET 0 0 0
                                }
                            }
                        }
                    }
                }
            }
        }
    }
}
MOTION
Frames: 6
Frame Time: 0.03333333333333333
57.01591393947601 -2.946277239918709 446.51997013092046 43.32095901718905 -77.34933925375863 42.11501475260201 0.6512086882746206 -7.752840654670616 -11.921095879861292 3.50500929032629 -2.2109957579537616 5.425289069095601 -78.73760016409047 -3.1805546814635168e-15 47.430762609643594 0.0 0.0 0.0 0.6212938900507989 -6.864487965213991 14.09893831116355 -16.01962200885932 -9.902466613801286 -26.680317662530364 99.80065056969892 -9.54166404439055e-15 -76.20453188319048 0.0 0.0 0.0 0.2964049545489511 -11.148289529697879 1.2931689957964125 -7.951386703658792e-16 0.0 0.0 -7.951386703658792e-16 0.0 0.0 -7.951386703658792e-16 0.0 0.0 -7.951386703658792e-16 0.0 0.0 140.27866970603918 10.428367055555203 -161.5219941902427 116.93635194616184 -2.25192322973947e-14 -1.1951257506652082e-14 3.2122387739212634e-16 49.7880843828856 6.863605675285245e-15 -7.951386703658792e-16 0.0 0.0 -145.38390658282466 10.773605559268914 157.57616059185642 -112.93835305543055 6.180995526135597e-15 -2.1881473107299215e-15 -180.0 -49.22708833987512 -180.0 0.0 0.0 1.1927080055488188e-15 -6.227246402861442 -6.382964259652203e-15 -1.1435253364741833e-15 0.0 0.0 0.0
57.01591393947601 -2.946277239918709 446.51997013092046 43.32095901718905 -77.34933925375863 42.11501475260201 0.6512086882746206 -7.752840654670616 -11.921095879861292 3.50500929032629 -2.2109957579537616 5.425289069095601 -78.73760016409047 -3.1805546814635168e-15 47.430762609643594 0.0 0.0 0.0 0.6212938900507989 -6.864487965213991 14.09893831116355 -16.01962200885932 -9.902466613801286 -26.680317662530364 99.80065056969892 -9.54166404439055e-15 -76.20453188319048 0.0 0.0 0.0 0.2964049545489511 -11.148289529697879 1.2931689957964125 -7.951386703658792e-16 0.0 0.0 -7.951386703658792e-16 0.0 0.0 -7.951386703658792e-16 0.0 0.0 -7.951386703658792e-16 0.0 0.0 140.27866970603918 10.428367055555203 -161.5219941902427 116.93635194616184 -2.25192322973947e-14 -1.1951257506652082e-14 3.2122387739212634e-16 49.7880843828856 6.863605675285245e-15 -7.951386703658792e-16 0.0 0.0 -145.38390658282466 10.773605559268914 157.57616059185642 -112.93835305543055 6.180995526135597e-15 -2.1881473107299215e-15 -180.0 -49.22708833987512 -180.0 0.0 0.0 1.1927080055488188e-15 -6.227246402861442 -6.382964259652203e-15 -1.1435253364741833e-15 0.0 0.0 0.0
57.01591393947601 -2.946277239918709 446.51997013092046 43.32095901718905 -77.34933925375863 42.11501475260201 0.6512086882746206 -7.752840654670616 -11.921095879861292 3.50500929032629 -2.2109957579537616 5.425289069095601 -78.73760016409047 -3.1805546814635168e-15 47.430762609643594 0.0 0.0 0.0 0.6212938900507989 -6.864487965213991 14.09893831116355 -16.01962200885932 -9.902466613801286 -26.680317662530364 99.80065056969892 -9.54166404439055e-15 -76.20453188319048 0.0 0.0 0.0 0.2964049545489511 -11.148289529697879 1.2931689957964125 -7.951386703658792e-16 0.0 0.0 -7.951386703658792e-16 0.0 0.0 -7.951386703658792e-16 0.0 0.0 -7.951386703658792e-16 0.0 0.0 140.27866970603918 10.428367055555203 -161.5219941902427 116.93635194616184 -2.25192322973947e-14 -1.1951257506652082e-14 3.2122387739212634e-16 49.7880843828856 6.863605675285245e-15 -7.951386703658792e-16 0.0 0.0 -145.38390658282466 10.773605559268914 157.57616059185642 -112.93835305543055 6.180995526135597e-15 -2.1881473107299215e-15 -180.0 -49.22708833987512 -180.0 0.0 0.0 1.1927080055488188e-15 -6.227246402861442 -6.382964259652203e-15 -1.1435253364741833e-15 0.0 0.0 0.0
57.04998114109039 -3.007656817138195 446.534408569336 43.83486522734957 -77.4149243849035 42.63450259430646 0.6760823681213849 -7.666998729921996 -11.988434230101587 3.8650170659220824 -2.4431630288547157 5.880288770477645 -77.93875815862337 -3.1805546814635168e-15 45.33605203961962 0.0 0.0 0.0 0.6412975799104966 -6.69783977478956 14.098900463192857 -16.064317076313344 -9.960884972201642 -26.511706857566484 99.69877603383318 9.54166404439055e-15 -76.19245153975514 0.0 0.0 0.0 0.27247923524474227 -10.98181106204854 1.2838533679210944 -7.951386703658792e-16 0.0 0.0 -7.951386703658792e-16 0.0 0.0 -7.951386703658792e-16 0.0 0.0 -7.951386703658792e-16 0.0 0.0 140.4191155238995 10.71141893529785 -161.63554031410277 116.53058315041237 -7.50123950744286e-15 3.543736554584854e-17 -1.9451932076790235e-15 48.15689226002448 4.352926334179484e-15 -7.951386703658792e-16 0.0 0.0 -145.62411008040652 10.861379964901944 157.83273860686157 -112.59815363672747 -6.176644866083512e-15 -9.261165002313855e-15 -180.0 -49.155944305188875 -180.0 7.951386703658792e-16 -6.896728590703373e-34 -9.93923337957349e-17 -6.266551026568997 5.787109147774783e-15 1.1131186630505199e-15 1.987846675914698e-16 0.0 0.0
57.0573091506958 -3.0264566928148273 446.53810558319094 43.9710147381779 -77.4273165479981 42.76554914141568 0.7159532394626944 -7.674423969219986 -12.024685212391876 4.065127682543625 -2.5679271227037113 6.516749917527943 -77.8577945857551 -3.1805546814635168e-15 43.534625948252234 0.0 0.0 0.0 0.6434105859970506 -6.658091634119949 14.110682581876167 -16.070420964307043 -9.96990959481461 -26.326878465217654 99.62609522468075 9.54166404439055e-15 -76.15359687598318 0.0 0.0 0.0 0.26883946575150536 -10.947851535045219 1.285030716795418 7.951386703658792e-16 0.0 0.0 7.951386703658792e-16 0.0 0.0 7.951386703658792e-16 0.0 0.0 7.951386703658792e-16 0.0 0.0 140.4804709547286 10.758845648530095 -161.6883857601242 116.5024807382877 3.317263953757194e-15 6.727972191975948e-15 1.4679805705299226e-15 48.06491831047176 -1.1101872226860107e-14 7.951386703658792e-16 4.4139062980501586e-32 6.3611093629270335e-15 -145.6551955581879 10.856950811440965 157.85683780478777 -112.57363195632821 1.1465338691450866e-14 -5.7384527548143584e-15 180.0 -49.137572573532864 180.0 0.0 0.0 8.945310041616142e-16 -6.282741668588772 6.170006364023111e-15 9.358753962802715e-16 0.0 0.0 0.0
57.064926338195804 -3.0469642639160157 446.54249439239504 44.110382818719835 -77.44128181945491 42.898421868286846 0.7563472690663975 -7.679623532053276 -12.055931954237343 4.216740591235912 -2.662544401826628 7.130079005473532 -78.46366196822892 -1.5902773407317584e-14 42.304317869288724 0.0 0.0 0.0 0.6444282070784902 -6.616780812939892 14.125309788398463 -16.0740425184343 -9.976560213366572 -26.132293110714375 99.54993076568147 -3.1805546814635168e-15 -76.11077505877496 0.0 0.0 0.0 0.2653703379631616 -10.912861359825895 1.2865686789996547 0.0 0.0 0.0 0.0 0.0 0.0 0.0 0.0 0.0 0.0 0.0 0.0 140.5432715722581 10.800357764470782 -161.73908197756163 116.46950977401518 0.0 0.0 0.0 47.94690446648551 0.0 0.0 0.0 0.0 -145.6816284469633 10.841595544485665 157.870298739419 -112.57058541041361 1.3230578330254656e-14 -3.093135066477311e-15 180.0 -49.128636709846155 -180.0 3.9756933518293955e-16 -3.4483642953516864e-33 -9.939233379573488e-16 -6.297205560786833 -1.5886711837003068e-14 -2.7665446860838147e-16 0.0 0.0 0.0
